<svg xmlns="http://www.w3.org/2000/svg" viewBox="0 0 111 43.36296030978876" class="editor-view__logo-preview" data-v-8d8ae3dd="" data-v-b9d2a614="" width="111" height="43.36296030978876"><!----><svg id="name" viewBox="0 0 111.27400207519531 43.470001220703125" width="111" height="43.36296030978876" x="0" y="0" data-v-8d8ae3dd="" style="fill:#06A0F9;" ><rect x="0" y="0" width="100%" height="100%" fill="none" data-v-8d8ae3dd=""></rect><g data-v-8d8ae3dd=""><path xmlns="http://www.w3.org/2000/svg" d="M20.38 40.11L1.61 32.94Q0.83 32.66 0.41 31.97Q0 31.28 0 30.41L0 30.41Q0 29.30 0.64 28.27Q1.29 27.23 2.35 26.86L2.35 26.86L22.86 19.73Q23.41 19.55 23.97 19.55L23.97 19.55Q24.93 19.55 25.48 20.19Q26.04 20.84 26.04 21.76L26.04 21.76Q26.04 22.63 25.51 23.39Q24.98 24.15 23.92 24.52L23.92 24.52L7.82 29.95L22.54 35.42Q23.32 35.70 23.74 36.29Q24.15 36.89 24.15 37.58L24.15 37.58Q24.15 38.64 23.39 39.49Q22.63 40.34 21.48 40.34L21.48 40.34Q20.98 40.34 20.38 40.11L20.38 40.11ZM51.15 32.98Q51.75 32.98 52.09 33.53Q52.44 34.09 52.44 35.05L52.44 35.05Q52.44 36.89 51.57 37.90L51.57 37.90Q49.86 39.97 46.76 41.72Q43.65 43.47 40.11 43.47L40.11 43.47Q35.28 43.47 32.61 40.85Q29.95 38.23 29.95 33.67L29.95 33.67Q29.95 30.50 31.28 27.76Q32.61 25.02 34.98 23.41Q37.35 21.80 40.34 21.80L40.34 21.80Q43.01 21.80 44.62 23.39Q46.23 24.98 46.23 27.69L46.23 27.69Q46.23 30.87 43.95 33.14Q41.68 35.42 36.25 36.75L36.25 36.75Q37.40 38.87 40.62 38.87L40.62 38.87Q42.69 38.87 45.33 37.42Q47.98 35.97 49.91 33.63L49.91 33.63Q50.46 32.98 51.15 32.98L51.15 32.98ZM39.56 26.31Q37.86 26.31 36.69 28.29Q35.51 30.27 35.51 33.07L35.51 33.07L35.51 33.17Q38.23 32.52 39.79 31.23Q41.35 29.95 41.35 28.24L41.35 28.24Q41.35 27.37 40.87 26.84Q40.39 26.31 39.56 26.31L39.56 26.31ZM66.15 32.98Q66.75 32.98 67.09 33.53Q67.44 34.09 67.44 35.05L67.44 35.05Q67.44 36.89 66.56 37.90L66.56 37.90Q64.58 40.34 62.26 41.91Q59.94 43.47 56.99 43.47L56.99 43.47Q52.95 43.47 50.99 39.79Q49.04 36.11 49.04 30.27L49.04 30.27Q49.04 24.66 50.48 17.48Q51.93 10.30 54.76 5.15Q57.59 0 61.50 0L61.50 0Q63.71 0 64.97 2.05Q66.24 4.09 66.24 7.91L66.24 7.91Q66.24 13.39 63.20 20.61Q60.17 27.83 54.97 34.91L54.97 34.91Q55.29 36.80 56.03 37.61Q56.76 38.41 57.96 38.41L57.96 38.41Q59.85 38.41 61.27 37.33Q62.70 36.25 64.91 33.63L64.91 33.63Q65.46 32.98 66.15 32.98L66.15 32.98ZM60.49 4.55Q59.43 4.55 58.10 8.37Q56.76 12.19 55.75 17.85Q54.74 23.51 54.65 28.70L54.65 28.70Q57.91 23.32 59.85 17.92Q61.78 12.51 61.78 8.05L61.78 8.05Q61.78 4.55 60.49 4.55L60.49 4.55ZM86.48 29.26Q86.62 29.21 86.94 29.21L86.94 29.21Q87.63 29.21 88.00 29.67Q88.37 30.13 88.37 30.91L88.37 30.91Q88.37 32.34 87.81 33.14Q87.26 33.95 86.16 34.32L86.16 34.32Q84.04 35.01 81.65 35.01L81.65 35.01Q79.63 35.01 77.83 34.45L77.83 34.45Q76.50 36.62 74.89 38.92L74.89 38.92Q73.05 41.54 71.71 42.50Q70.38 43.47 68.68 43.47L68.68 43.47Q66.79 43.47 65.71 42.00Q64.63 40.53 64.35 37.35L64.35 37.35Q63.80 30.91 63.80 26.08L63.80 26.08L63.80 24.47Q63.85 22.95 64.63 22.36Q65.41 21.76 66.98 21.76L66.98 21.76Q68.17 21.76 68.75 22.29Q69.32 22.82 69.32 24.06L69.32 24.06Q69.32 29.35 69.97 37.81L69.97 37.81Q72.73 33.72 74.11 31.28L74.11 31.28Q73.42 29.95 73.42 28.11L73.42 28.11Q73.42 26.54 74.11 25.07Q74.80 23.60 75.99 22.68Q77.19 21.76 78.71 21.76L78.71 21.76Q80.04 21.76 80.87 22.70Q81.70 23.64 81.70 25.44L81.70 25.44Q81.70 27.51 80.59 30.18L80.59 30.18Q82.34 30.08 85.24 29.49L85.24 29.49L86.48 29.26ZM88.41 40.11Q87.86 40.30 87.31 40.30L87.31 40.30Q86.34 40.30 85.79 39.65Q85.24 39.01 85.24 38.09L85.24 38.09Q85.24 37.21 85.77 36.45Q86.30 35.70 87.35 35.33L87.35 35.33L103.45 29.90L88.73 24.43Q87.95 24.15 87.54 23.55Q87.12 22.95 87.12 22.26L87.12 22.26Q87.12 21.21 87.88 20.36Q88.64 19.50 89.79 19.50L89.79 19.50Q90.30 19.50 90.90 19.73L90.90 19.73L109.66 26.91Q110.45 27.19 110.86 27.88Q111.27 28.57 111.27 29.44L111.27 29.44Q111.27 30.54 110.63 31.58Q109.99 32.61 108.93 32.98L108.93 32.98L88.41 40.11Z"></path></g></svg><!----></svg>